<svg width="80" height="82" viewBox="0 0 80 82" fill="none" xmlns="http://www.w3.org/2000/svg">
<g clip-path="url(#clip0_2971_6)">
<path d="M49.5805 3.92648L41.9063 1.83789L35.4392 26.3526L29.6006 4.22055L21.9262 6.30915L28.2345 30.2211L12.5221 14.2621L6.90414 19.9682L24.1387 37.4735L2.67579 31.6322L0.619478 39.4268L24.0704 45.8092C23.802 44.633 23.6599 43.4074 23.6599 42.1481C23.6599 33.2345 30.7741 26.0087 39.5499 26.0087C48.3257 26.0087 55.4398 33.2345 55.4398 42.1481C55.4398 43.3993 55.2995 44.6173 55.0343 45.7866L76.3469 51.5869L78.4031 43.7923L54.8589 37.3845L76.3233 31.5428L74.2669 23.7482L50.7237 30.1555L66.4361 14.1966L60.8182 8.49043L43.8226 25.7529L49.5805 3.92648Z" fill="#F53003"/>
<path d="M55.0119 45.8774C54.354 48.7027 52.9649 51.2409 51.0589 53.2744L66.4989 68.9571L72.1169 63.2509L55.0119 45.8774Z" fill="#F53003"/>
<path d="M50.9031 53.4384C48.9741 55.4395 46.5364 56.9328 43.8028 57.7024L49.4211 78.9994L57.0953 76.9107L50.9031 53.4384Z" fill="#F53003"/>
<path d="M43.5161 57.7803C42.2478 58.1115 40.9185 58.2874 39.5485 58.2874C38.0808 58.2874 36.6595 58.0853 35.3103 57.707L29.6869 79.0234L37.361 81.1118L43.5161 57.7803Z" fill="#F53003"/>
<path d="M35.0389 57.6284C32.347 56.8206 29.9527 55.3082 28.0631 53.3014L12.5851 69.0224L18.203 74.7286L35.0389 57.6284Z" fill="#F53003"/>
<path d="M27.9356 53.1624C26.0784 51.1429 24.7256 48.6386 24.0817 45.8569L2.69956 51.6762L4.75585 59.4709L27.9356 53.1624Z" fill="#F53003"/>
</g>
<defs>
<clipPath id="clip0_2971_6">
<rect width="80" height="81.256" fill="white"/>
</clipPath>
</defs>
</svg>
